<svg width="136" height="74" viewBox="0 0 136 74" fill="none" xmlns="http://www.w3.org/2000/svg">
<path d="M5.808 51.296C6.704 51.296 7.48 51.448 8.136 51.752C8.808 52.056 9.456 52.512 10.08 53.12L9.288 53.96C8.728 53.448 8.176 53.08 7.632 52.856C7.104 52.616 6.504 52.496 5.832 52.496C4.936 52.496 4.208 52.752 3.648 53.264C3.088 53.776 2.808 54.448 2.808 55.28C2.808 56.112 3.056 56.776 3.552 57.272C4.048 57.752 4.944 58.216 6.24 58.664C7.712 59.176 8.792 59.784 9.48 60.488C10.168 61.192 10.512 62.2 10.512 63.512C10.512 64.408 10.304 65.224 9.888 65.96C9.488 66.68 8.912 67.248 8.16 67.664C7.408 68.064 6.544 68.264 5.568 68.264C3.712 68.264 2.12 67.576 0.792 66.2L1.584 65.384C2.192 65.944 2.8 66.368 3.408 66.656C4.016 66.928 4.728 67.064 5.544 67.064C6.6 67.064 7.456 66.752 8.112 66.128C8.768 65.488 9.096 64.632 9.096 63.56C9.096 62.904 8.984 62.36 8.76 61.928C8.552 61.496 8.2 61.12 7.704 60.8C7.208 60.464 6.512 60.136 5.616 59.816C4.112 59.288 3.032 58.688 2.376 58.016C1.72 57.328 1.392 56.432 1.392 55.328C1.392 54.576 1.576 53.896 1.944 53.288C2.328 52.664 2.856 52.176 3.528 51.824C4.2 51.472 4.96 51.296 5.808 51.296ZM19.1599 67.472C18.4239 68 17.6239 68.264 16.7599 68.264C15.8799 68.264 15.1919 68 14.6959 67.472C14.1999 66.944 13.9519 66.2 13.9519 65.24V56.552H12.0559V55.448H13.9519V52.448L15.2959 52.28V55.448H18.1999L18.0319 56.552H15.2959V65.192C15.2959 66.472 15.8319 67.112 16.9039 67.112C17.4479 67.112 18.0159 66.936 18.6079 66.584L19.1599 67.472ZM29.3736 68H28.2216L28.1256 65.84C27.2456 67.456 26.0296 68.264 24.4776 68.264C23.4696 68.264 22.6776 67.944 22.1016 67.304C21.5256 66.664 21.2376 65.776 21.2376 64.64V55.448H22.5816V64.52C22.5816 66.264 23.3016 67.136 24.7416 67.136C25.4456 67.136 26.0616 66.912 26.5896 66.464C27.1176 66.016 27.5976 65.384 28.0296 64.568V55.448H29.3736V68ZM42.0086 50.336V68H40.8326L40.7126 66.128C40.3446 66.784 39.8806 67.304 39.3206 67.688C38.7766 68.072 38.1206 68.264 37.3526 68.264C36.0086 68.264 34.9526 67.696 34.1846 66.56C33.4326 65.408 33.0566 63.816 33.0566 61.784C33.0566 60.472 33.2406 59.32 33.6086 58.328C33.9766 57.32 34.4966 56.544 35.1686 56C35.8406 55.456 36.6246 55.184 37.5206 55.184C38.8006 55.184 39.8486 55.744 40.6646 56.864V50.168L42.0086 50.336ZM37.5446 67.136C38.2326 67.136 38.8246 66.944 39.3206 66.56C39.8166 66.176 40.2646 65.6 40.6646 64.832V58.232C39.8646 56.952 38.8886 56.312 37.7366 56.312C36.7286 56.312 35.9286 56.784 35.3366 57.728C34.7606 58.656 34.4806 60 34.4966 61.76C34.4966 63.536 34.7606 64.88 35.2886 65.792C35.8326 66.688 36.5846 67.136 37.5446 67.136ZM47.8734 55.448V68H46.5294V55.448H47.8734ZM47.2014 49.952C47.4894 49.952 47.7214 50.048 47.8974 50.24C48.0894 50.432 48.1854 50.664 48.1854 50.936C48.1854 51.224 48.0894 51.464 47.8974 51.656C47.7214 51.832 47.4894 51.92 47.2014 51.92C46.9134 51.92 46.6734 51.832 46.4814 51.656C46.3054 51.464 46.2174 51.224 46.2174 50.936C46.2174 50.664 46.3054 50.432 46.4814 50.24C46.6734 50.048 46.9134 49.952 47.2014 49.952ZM56.3248 55.184C57.8448 55.184 59.0288 55.744 59.8768 56.864C60.7248 57.984 61.1488 59.592 61.1488 61.688C61.1488 63.752 60.7168 65.368 59.8528 66.536C58.9888 67.688 57.8048 68.264 56.3008 68.264C54.7968 68.264 53.6208 67.696 52.7728 66.56C51.9248 65.408 51.5008 63.8 51.5008 61.736C51.5008 59.672 51.9248 58.064 52.7728 56.912C53.6368 55.76 54.8208 55.184 56.3248 55.184ZM56.3248 56.336C55.2368 56.336 54.3968 56.784 53.8048 57.68C53.2128 58.56 52.9168 59.912 52.9168 61.736C52.9168 63.544 53.2048 64.896 53.7808 65.792C54.3728 66.688 55.2128 67.136 56.3008 67.136C57.3888 67.136 58.2288 66.688 58.8208 65.792C59.4128 64.896 59.7088 63.528 59.7088 61.688C59.7088 59.88 59.4208 58.536 58.8448 57.656C58.2688 56.776 57.4288 56.336 56.3248 56.336Z" fill="#003E6C"/>
<path d="M26.112 45H16.512L8.352 18.888C8.416 19.272 8.448 19.592 8.448 19.848C8.736 22.152 8.96 24.248 9.12 26.136C9.28 27.992 9.36 30.152 9.36 32.616V45H2.64V11.736H12.144L20.448 37.896C19.744 33.736 19.392 29.592 19.392 25.464V11.736H26.112V45ZM38.6224 19.512V45H31.2304V19.512H38.6224ZM34.8784 6.216C36.1264 6.216 37.1504 6.616 37.9504 7.416C38.7824 8.216 39.1984 9.208 39.1984 10.392C39.1984 11.608 38.7824 12.616 37.9504 13.416C37.1504 14.216 36.1264 14.616 34.8784 14.616C33.6304 14.616 32.6064 14.216 31.8064 13.416C31.0064 12.616 30.6064 11.608 30.6064 10.392C30.6064 9.208 31.0064 8.216 31.8064 7.416C32.6064 6.616 33.6304 6.216 34.8784 6.216ZM54.1163 18.696C55.7163 18.696 57.1563 18.952 58.4363 19.464C59.7163 19.976 60.9163 20.76 62.0363 21.816L58.9643 26.04C58.2283 25.464 57.5243 25.048 56.8523 24.792C56.1803 24.504 55.4603 24.36 54.6923 24.36C53.2203 24.36 52.1163 24.968 51.3803 26.184C50.6443 27.4 50.2763 29.48 50.2763 32.424C50.2763 35.24 50.6443 37.208 51.3803 38.328C52.1483 39.448 53.2363 40.008 54.6443 40.008C55.3803 40.008 56.0523 39.896 56.6603 39.672C57.2683 39.416 57.9883 39 58.8203 38.424L62.0363 42.792C59.8283 44.808 57.2203 45.816 54.2123 45.816C50.5643 45.816 47.7003 44.648 45.6203 42.312C43.5723 39.976 42.5483 36.696 42.5483 32.472C42.5483 29.688 43.0123 27.256 43.9403 25.176C44.9003 23.096 46.2443 21.496 47.9723 20.376C49.7323 19.256 51.7803 18.696 54.1163 18.696ZM71.9505 8.616V45H64.5585V9.384L71.9505 8.616ZM86.3505 19.512L79.5345 30.696L86.8785 45H78.8145L72.1905 31.08L79.1025 19.512H86.3505ZM107.893 39.96C107.893 43.736 106.997 46.584 105.205 48.504C103.413 50.424 100.965 51.928 97.8608 53.016L95.8447 47.592C97.0928 47.048 98.0208 46.44 98.6288 45.768C99.2688 45.096 99.6848 44.296 99.8768 43.368C100.101 42.44 100.213 41.208 100.213 39.672V11.736H107.893V39.96ZM125.943 18.792C126.775 18.792 127.511 18.92 128.151 19.176L126.951 26.28C126.279 26.088 125.607 25.992 124.935 25.992C123.623 25.992 122.615 26.504 121.911 27.528C121.207 28.52 120.663 30.008 120.279 31.992V45H112.887V19.512H119.367L119.943 23.976C120.519 22.312 121.319 21.032 122.343 20.136C123.367 19.24 124.567 18.792 125.943 18.792ZM129.597 37.32C130.813 37.32 131.821 37.736 132.621 38.568C133.421 39.4 133.821 40.392 133.821 41.544C133.821 42.728 133.421 43.736 132.621 44.568C131.821 45.4 130.813 45.816 129.597 45.816C128.381 45.816 127.373 45.4 126.573 44.568C125.805 43.736 125.421 42.728 125.421 41.544C125.421 40.392 125.821 39.4 126.621 38.568C127.421 37.736 128.413 37.32 129.597 37.32Z" fill="#003E6C"/>
</svg>
